# xmcd
#
# Track frame offsets: 
#        150
#        13665
#        26146
#        38584
#        55610
#        72212
#        93640
#        108283
#        123793
#        136917
#        150573
#        169332
#
# Disc length: 2503 seconds
#
# Revision: 0
# Processed by: cddbd v1.5.2PL0 Copyright (c) Steve Scherf et al.
# Submitted via: ExactAudioCopyFreeDBPlugin 1.0
#
DISCID=9309c50c
DTITLE=Shawn Sahm - The Tex Mex Experience
DYEAR=2008
DGENRE=Country
TTITLE0=Why Don't Cha
TTITLE1=Hippie Girl (My Little Groover)
TTITLE2=Mama's Out Rockin'
TTITLE3=Too Little Too Late
TTITLE4=Texas Rose
TTITLE5=One And Only
TTITLE6=Bleed Me
TTITLE7=Comin' Around
TTITLE8=Bajo Betty
TTITLE9=Open Up Your Heart
TTITLE10=One Shot
TTITLE11=She Would If She Could
EXTD=
EXTT0=
EXTT1=
EXTT2=
EXTT3=
EXTT4=
EXTT5=
EXTT6=
EXTT7=
EXTT8=
EXTT9=
EXTT10=
EXTT11=
PLAYORDER=
